<svg width="816" height="214" viewBox="0 0 816 214" fill="none" xmlns="http://www.w3.org/2000/svg">
<rect width="816" height="214" fill="#B7FFA6"/>
<path d="M254.144 131V86.072H237.944V80.6H276.392V86.072H260.192V131H254.144ZM293.26 132.008C289.708 132.008 286.588 131.264 283.9 129.776C281.212 128.24 279.124 126.104 277.636 123.368C276.148 120.632 275.404 117.464 275.404 113.864V113C275.404 109.352 276.148 106.16 277.636 103.424C279.124 100.688 281.188 98.576 283.828 97.088C286.468 95.552 289.492 94.784 292.9 94.784C296.212 94.784 299.14 95.504 301.684 96.944C304.228 98.336 306.22 100.352 307.66 102.992C309.1 105.632 309.82 108.728 309.82 112.28V114.872H281.092C281.236 118.664 282.46 121.64 284.764 123.8C287.068 125.912 289.948 126.968 293.404 126.968C296.428 126.968 298.756 126.272 300.388 124.88C302.02 123.488 303.268 121.832 304.132 119.912L309.028 122.288C308.308 123.776 307.3 125.264 306.004 126.752C304.756 128.24 303.1 129.488 301.036 130.496C299.02 131.504 296.428 132.008 293.26 132.008ZM281.164 110.192H304.06C303.868 106.928 302.74 104.384 300.676 102.56C298.66 100.736 296.068 99.824 292.9 99.824C289.684 99.824 287.044 100.736 284.98 102.56C282.916 104.384 281.644 106.928 281.164 110.192ZM319.742 131V95.792H325.286V100.112H326.294C326.918 98.576 327.878 97.448 329.174 96.728C330.47 96.008 332.174 95.648 334.286 95.648H338.462V100.832H333.926C331.382 100.832 329.318 101.552 327.734 102.992C326.198 104.384 325.43 106.568 325.43 109.544V131H319.742ZM346.882 131V95.792H352.426V100.184H353.434C354.106 98.936 355.21 97.784 356.746 96.728C358.282 95.672 360.442 95.144 363.226 95.144C365.962 95.144 368.17 95.744 369.85 96.944C371.578 98.144 372.826 99.608 373.594 101.336H374.602C375.418 99.608 376.642 98.144 378.274 96.944C379.954 95.744 382.282 95.144 385.258 95.144C387.61 95.144 389.674 95.624 391.45 96.584C393.226 97.544 394.618 98.936 395.626 100.76C396.682 102.536 397.21 104.672 397.21 107.168V131H391.522V107.672C391.522 105.32 390.826 103.472 389.434 102.128C388.09 100.736 386.194 100.04 383.746 100.04C381.154 100.04 379.018 100.88 377.338 102.56C375.706 104.24 374.89 106.664 374.89 109.832V131H369.202V107.672C369.202 105.32 368.506 103.472 367.114 102.128C365.77 100.736 363.874 100.04 361.426 100.04C358.834 100.04 356.698 100.88 355.018 102.56C353.386 104.24 352.57 106.664 352.57 109.832V131H346.882ZM408.828 131V95.792H414.516V131H408.828ZM411.708 90.32C410.46 90.32 409.404 89.912 408.54 89.096C407.724 88.28 407.316 87.248 407.316 86C407.316 84.704 407.724 83.648 408.54 82.832C409.404 82.016 410.46 81.608 411.708 81.608C412.956 81.608 413.988 82.016 414.804 82.832C415.62 83.648 416.028 84.704 416.028 86C416.028 87.248 415.62 88.28 414.804 89.096C413.988 89.912 412.956 90.32 411.708 90.32ZM426.476 131V95.792H432.02V101.768H433.028C433.796 100.088 435.092 98.576 436.916 97.232C438.788 95.84 441.524 95.144 445.124 95.144C447.764 95.144 450.116 95.696 452.18 96.8C454.292 97.904 455.972 99.536 457.22 101.696C458.468 103.856 459.092 106.52 459.092 109.688V131H453.404V110.12C453.404 106.616 452.516 104.072 450.74 102.488C449.012 100.904 446.66 100.112 443.684 100.112C440.276 100.112 437.492 101.216 435.332 103.424C433.22 105.632 432.164 108.92 432.164 113.288V131H426.476ZM481.432 132.008C478.984 132.008 476.752 131.576 474.736 130.712C472.72 129.848 471.136 128.6 469.984 126.968C468.832 125.336 468.256 123.344 468.256 120.992C468.256 118.592 468.832 116.624 469.984 115.088C471.136 113.504 472.72 112.328 474.736 111.56C476.752 110.744 479.008 110.336 481.504 110.336H493.384V107.744C493.384 105.248 492.64 103.28 491.152 101.84C489.712 100.4 487.552 99.68 484.672 99.68C481.84 99.68 479.632 100.376 478.048 101.768C476.464 103.112 475.384 104.936 474.808 107.24L469.48 105.512C470.056 103.544 470.968 101.768 472.216 100.184C473.464 98.552 475.12 97.256 477.184 96.296C479.296 95.288 481.816 94.784 484.744 94.784C489.256 94.784 492.76 95.96 495.256 98.312C497.752 100.616 499 103.88 499 108.104V124.016C499 125.456 499.672 126.176 501.016 126.176H504.256V131H499.288C497.704 131 496.432 130.568 495.472 129.704C494.512 128.792 494.032 127.592 494.032 126.104V125.744H493.168C492.64 126.656 491.92 127.616 491.008 128.624C490.144 129.584 488.944 130.376 487.408 131C485.872 131.672 483.88 132.008 481.432 132.008ZM482.08 127.112C485.44 127.112 488.152 126.128 490.216 124.16C492.328 122.144 493.384 119.336 493.384 115.736V114.944H481.72C479.464 114.944 477.592 115.448 476.104 116.456C474.664 117.416 473.944 118.88 473.944 120.848C473.944 122.816 474.688 124.352 476.176 125.456C477.712 126.56 479.68 127.112 482.08 127.112ZM512.046 131V80.6H517.734V131H512.046ZM558.457 131V86.072H542.257V80.6H580.705V86.072H564.505V131H558.457ZM583.132 131V95.792H588.676V100.112H589.684C590.308 98.576 591.268 97.448 592.564 96.728C593.86 96.008 595.564 95.648 597.676 95.648H601.852V100.832H597.316C594.772 100.832 592.708 101.552 591.124 102.992C589.588 104.384 588.82 106.568 588.82 109.544V131H583.132ZM625.279 132.008C621.727 132.008 618.583 131.264 615.847 129.776C613.159 128.288 611.047 126.2 609.511 123.512C608.023 120.776 607.279 117.56 607.279 113.864V112.928C607.279 109.28 608.023 106.088 609.511 103.352C611.047 100.616 613.159 98.504 615.847 97.016C618.583 95.528 621.727 94.784 625.279 94.784C628.831 94.784 631.951 95.528 634.639 97.016C637.375 98.504 639.487 100.616 640.975 103.352C642.511 106.088 643.279 109.28 643.279 112.928V113.864C643.279 117.56 642.511 120.776 640.975 123.512C639.487 126.2 637.375 128.288 634.639 129.776C631.951 131.264 628.831 132.008 625.279 132.008ZM625.279 126.896C629.023 126.896 631.999 125.72 634.207 123.368C636.463 120.968 637.591 117.752 637.591 113.72V113.072C637.591 109.04 636.463 105.848 634.207 103.496C631.999 101.096 629.023 99.896 625.279 99.896C621.583 99.896 618.607 101.096 616.351 103.496C614.095 105.848 612.967 109.04 612.967 113.072V113.72C612.967 117.752 614.095 120.968 616.351 123.368C618.607 125.72 621.583 126.896 625.279 126.896ZM660.967 131L648.367 95.792H654.415L664.999 126.752H666.007L676.591 95.792H682.639L670.039 131H660.967ZM705.502 132.008C701.95 132.008 698.83 131.264 696.142 129.776C693.454 128.24 691.366 126.104 689.878 123.368C688.39 120.632 687.646 117.464 687.646 113.864V113C687.646 109.352 688.39 106.16 689.878 103.424C691.366 100.688 693.43 98.576 696.07 97.088C698.71 95.552 701.734 94.784 705.142 94.784C708.454 94.784 711.382 95.504 713.926 96.944C716.47 98.336 718.462 100.352 719.902 102.992C721.342 105.632 722.062 108.728 722.062 112.28V114.872H693.334C693.478 118.664 694.702 121.64 697.006 123.8C699.31 125.912 702.19 126.968 705.646 126.968C708.67 126.968 710.998 126.272 712.63 124.88C714.262 123.488 715.51 121.832 716.374 119.912L721.27 122.288C720.55 123.776 719.542 125.264 718.246 126.752C716.998 128.24 715.342 129.488 713.278 130.496C711.262 131.504 708.67 132.008 705.502 132.008ZM693.406 110.192H716.302C716.11 106.928 714.982 104.384 712.918 102.56C710.902 100.736 708.31 99.824 705.142 99.824C701.926 99.824 699.286 100.736 697.222 102.56C695.158 104.384 693.886 106.928 693.406 110.192Z" fill="black"/>
<path d="M73.72 88.384H88.696V68.8H96.184V88.384H114.616V95.296H96.184V126.208C96.184 128.128 97.048 129.088 98.776 129.088H112.312V136H96.088C93.912 136 92.12 135.296 90.712 133.888C89.368 132.48 88.696 130.688 88.696 128.512V95.296H73.72V88.384ZM132.789 140.608H177.525V147.52H132.789V140.608Z" fill="black"/>
</svg>
